<svg width="18" height="16" viewBox="0 0 18 16" fill="none" xmlns="http://www.w3.org/2000/svg">
<path d="M8.67103 2.75651L9 3.04393L9.32897 2.75651C10.202 1.99375 11.4136 1.45597 12.6447 1.41976C13.862 1.38396 15.0457 1.8157 15.9686 2.97112C16.9198 4.17358 16.8466 6.32485 15.5989 8.67446C14.3779 10.9468 12.1231 13.2106 9.00001 14.576C5.87605 13.2103 3.62272 10.9463 2.42199 8.6762L2.422 8.67619L2.42006 8.6726C1.15321 6.32405 1.08067 4.17302 2.0314 2.97112C2.95435 1.8157 4.138 1.38396 5.3553 1.41976C6.5864 1.45597 7.79799 1.99375 8.67103 2.75651Z" stroke="black"/>
</svg>
