<svg width="18" height="18" viewBox="0 0 18 18" fill="none" xmlns="http://www.w3.org/2000/svg">
<path d="M13 4.87C13 2.67 11.21 0.869995 9.00002 0.869995C6.79002 0.869995 5.00002 2.67 5.00002 4.87C5.00002 7.08 6.79002 8.87 9.00002 8.87C11.21 8.87 13 7.08 13 4.87ZM2.24002 9.66C1.78467 9.92167 1.38538 10.2706 1.065 10.6867C0.744618 11.1028 0.509434 11.5781 0.3729 12.0852C0.236366 12.5923 0.201163 13.1214 0.269305 13.6421C0.337446 14.1629 0.507595 14.6651 0.770017 15.12C1.30062 16.0401 2.17491 16.7119 3.20067 16.9875C4.22642 17.2632 5.31966 17.1202 6.24002 16.59C6.69507 16.3267 7.09382 15.9764 7.41347 15.559C7.73312 15.1416 7.96743 14.6653 8.103 14.1574C8.23858 13.6495 8.27277 13.1198 8.20363 12.5986C8.13448 12.0775 7.96335 11.575 7.70002 11.12C6.60002 9.21 4.15002 8.56 2.24002 9.66ZM11.76 16.59C13.68 17.69 16.12 17.04 17.23 15.13C18.33 13.21 17.68 10.77 15.76 9.66C13.85 8.56 11.4 9.21 10.3 11.12C10.0367 11.575 9.86555 12.0775 9.79641 12.5986C9.72726 13.1198 9.76145 13.6495 9.89703 14.1574C10.0326 14.6653 10.2669 15.1416 10.5866 15.559C10.9062 15.9764 11.305 16.3267 11.76 16.59Z" fill="#312A41"/>
</svg>
