
<svg width="50" height="50" viewBox="0 0 50 50" fill="none" xmlns="http://www.w3.org/2000/svg">
<g filter="url(#filter0_d_1_55)">
<rect x="10" y="10" width="30" height="30" rx="15" fill="url(#paint0_linear_1_55)"/>
</g>
<path fill-rule="evenodd" clip-rule="evenodd" d="M25 33C29.4183 33 33 29.4183 33 25C33 20.5817 29.4183 17 25 17C20.5817 17 17 20.5817 17 25C17 29.4183 20.5817 33 25 33ZM25 19.1334C25 19.1334 27.2325 21.2792 27.2325 25.1861C27.2325 29.0931 25 30.8667 25 30.8667C25 30.8667 31.5116 30.7675 31.3255 25.1861C31.1395 19.6047 25 19.1334 25 19.1334Z" fill="white"/>
<defs>
<filter id="filter0_d_1_55" x="0" y="0" width="50" height="50" filterUnits="userSpaceOnUse" color-interpolation-filters="sRGB">
<feFlood flood-opacity="0" result="BackgroundImageFix"/>
<feColorMatrix in="SourceAlpha" type="matrix" values="0 0 0 0 0 0 0 0 0 0 0 0 0 0 0 0 0 0 127 0" result="hardAlpha"/>
<feOffset/>
<feGaussianBlur stdDeviation="5"/>
<feColorMatrix type="matrix" values="0 0 0 0 0.364706 0 0 0 0 0.34902 0 0 0 0 0.415686 0 0 0 0.7 0"/>
<feBlend mode="normal" in2="BackgroundImageFix" result="effect1_dropShadow_1_55"/>
<feBlend mode="normal" in="SourceGraphic" in2="effect1_dropShadow_1_55" result="shape"/>
</filter>
<linearGradient id="paint0_linear_1_55" x1="10.1934" y1="10" x2="10.1934" y2="39.6132" gradientUnits="userSpaceOnUse">
<stop stop-color="#595761"/>
<stop offset="1" stop-color="#6E7587"/>
</linearGradient>
</defs>
</svg>
