<svg width="50" height="50" viewBox="0 0 50 50" fill="none" xmlns="http://www.w3.org/2000/svg">
<g filter="url(#filter0_d_1_95)">
<rect x="10" y="10" width="30" height="30" rx="15" fill="url(#paint0_linear_1_95)"/>
</g>
<path fill-rule="evenodd" clip-rule="evenodd" d="M20.7701 29.4501L22.8448 28.8486L24.7871 32.4C24.8791 32.5683 25.1208 32.5683 25.2128 32.4L27.1551 28.8486L29.2298 29.4501C29.414 29.5035 29.5844 29.3322 29.53 29.1483L28.9306 27.1222L32.3737 25.2391C32.542 25.1471 32.542 24.9054 32.3737 24.8134L28.8991 22.9131L29.53 20.7805C29.5844 20.5967 29.414 20.4253 29.2298 20.4787L27.0968 21.0972L25.2128 17.6525C25.1208 17.4842 24.8791 17.4842 24.7871 17.6525L22.9031 21.0972L20.7701 20.4787C20.5859 20.4253 20.4155 20.5967 20.4699 20.7805L21.1008 22.9131L17.6262 24.8134C17.4579 24.9054 17.4579 25.1471 17.6262 25.2391L21.0693 27.1222L20.4699 29.1483C20.4155 29.3322 20.5859 29.5035 20.7701 29.4501ZM22.6649 25.2595L24.05 26.017L24.8075 27.4021C24.8995 27.5703 25.1412 27.5703 25.2332 27.4021L25.9907 26.017L27.3758 25.2595C27.544 25.1675 27.544 24.9258 27.3758 24.8338L25.9907 24.0763L25.2332 22.6912C25.1412 22.5229 24.8995 22.5229 24.8075 22.6912L24.05 24.0763L22.6649 24.8338C22.4966 24.9258 22.4966 25.1675 22.6649 25.2595Z" fill="white"/>
<defs>
<filter id="filter0_d_1_95" x="0" y="0" width="50" height="50" filterUnits="userSpaceOnUse" color-interpolation-filters="sRGB">
<feFlood flood-opacity="0" result="BackgroundImageFix"/>
<feColorMatrix in="SourceAlpha" type="matrix" values="0 0 0 0 0 0 0 0 0 0 0 0 0 0 0 0 0 0 127 0" result="hardAlpha"/>
<feOffset/>
<feGaussianBlur stdDeviation="5"/>
<feColorMatrix type="matrix" values="0 0 0 0 0.94902 0 0 0 0 0.580392 0 0 0 0 0.913725 0 0 0 0.7 0"/>
<feBlend mode="normal" in2="BackgroundImageFix" result="effect1_dropShadow_1_95"/>
<feBlend mode="normal" in="SourceGraphic" in2="effect1_dropShadow_1_95" result="shape"/>
</filter>
<linearGradient id="paint0_linear_1_95" x1="10.2462" y1="10" x2="10.2462" y2="39.5076" gradientUnits="userSpaceOnUse">
<stop stop-color="#EC8CE5"/>
<stop offset="1" stop-color="#F3A7E7"/>
</linearGradient>
</defs>
</svg>
