<svg width="50" height="50" viewBox="0 0 50 50" fill="none" xmlns="http://www.w3.org/2000/svg">
<g filter="url(#filter0_d_1_118)">
<rect x="10" y="10" width="30" height="30" rx="15" fill="url(#paint0_linear_1_118)"/>
</g>
<path fill-rule="evenodd" clip-rule="evenodd" d="M21.3056 30.9897C23.6324 32.5939 26.6632 32.6476 29.2021 30.1087C32.1456 27.1652 30.5839 18.727 30.5839 18.727C30.5839 18.727 23.5271 18.7518 20.7384 21.1451C17.9497 23.5384 17.8493 27.7065 20.2515 30.1087C20.3205 30.1777 20.3905 30.2452 20.4615 30.3111L22.5643 27.712L22.5643 24.5426L23.3376 26.9258L25.0057 25.0421L24.6801 22.8836L25.605 24.1909L28 21.5L26.3162 24.5426L28 25.0421L25.8706 25.5094L24 27.4173L26.9435 27.712L23.3376 28.4919L21.3056 30.9897Z" fill="white"/>
<defs>
<filter id="filter0_d_1_118" x="0" y="0" width="50" height="50" filterUnits="userSpaceOnUse" color-interpolation-filters="sRGB">
<feFlood flood-opacity="0" result="BackgroundImageFix"/>
<feColorMatrix in="SourceAlpha" type="matrix" values="0 0 0 0 0 0 0 0 0 0 0 0 0 0 0 0 0 0 127 0" result="hardAlpha"/>
<feOffset/>
<feGaussianBlur stdDeviation="5"/>
<feColorMatrix type="matrix" values="0 0 0 0 0.392157 0 0 0 0 0.72549 0 0 0 0 0.329412 0 0 0 0.7 0"/>
<feBlend mode="normal" in2="BackgroundImageFix" result="effect1_dropShadow_1_118"/>
<feBlend mode="normal" in="SourceGraphic" in2="effect1_dropShadow_1_118" result="shape"/>
</filter>
<linearGradient id="paint0_linear_1_118" x1="10" y1="10" x2="10" y2="40" gradientUnits="userSpaceOnUse">
<stop stop-color="#5FBC51"/>
<stop offset="1" stop-color="#5AC178"/>
</linearGradient>
</defs>
</svg>
