<svg width="50" height="50" viewBox="0 0 50 50" fill="none" xmlns="http://www.w3.org/2000/svg">
<g filter="url(#filter0_d_1_41)">
<rect x="10" y="10" width="30" height="30" rx="15" fill="url(#paint0_linear_1_41)"/>
</g>
<path fill-rule="evenodd" clip-rule="evenodd" d="M21.6447 32.5C22.353 32.5 22.9742 31.9995 23.3224 31.2477C23.6706 31.9995 24.2917 32.5 25 32.5C25.6456 32.5 26.2189 32.0841 26.5789 31.4411C26.939 32.0841 27.5123 32.5 28.1579 32.5C29.2479 32.5 30.1316 31.3145 30.1316 29.8521C30.1316 29.564 30.0973 29.2866 30.0338 29.0268C31.5485 27.8156 32.5 26.0657 32.5 24.1196C32.5 20.4637 29.1421 17.5 25 17.5C20.8579 17.5 17.5 20.4637 17.5 24.1196C17.5 25.9955 18.384 27.689 19.8044 28.8936C19.7183 29.1908 19.6711 29.5141 19.6711 29.8521C19.6711 31.3145 20.5547 32.5 21.6447 32.5ZM24.9013 27.6117C27.3539 27.6117 29.3421 26.107 29.3421 24.2509C29.3421 22.3948 27.3539 20.8902 24.9013 20.8902C22.4487 20.8902 20.4605 22.3948 20.4605 24.2509C20.4605 26.107 22.4487 27.6117 24.9013 27.6117Z" fill="white"/>
<defs>
<filter id="filter0_d_1_41" x="0" y="0" width="50" height="50" filterUnits="userSpaceOnUse" color-interpolation-filters="sRGB">
<feFlood flood-opacity="0" result="BackgroundImageFix"/>
<feColorMatrix in="SourceAlpha" type="matrix" values="0 0 0 0 0 0 0 0 0 0 0 0 0 0 0 0 0 0 127 0" result="hardAlpha"/>
<feOffset/>
<feGaussianBlur stdDeviation="5"/>
<feColorMatrix type="matrix" values="0 0 0 0 0.639216 0 0 0 0 0.419608 0 0 0 0 0.796078 0 0 0 0.7 0"/>
<feBlend mode="normal" in2="BackgroundImageFix" result="effect1_dropShadow_1_41"/>
<feBlend mode="normal" in="SourceGraphic" in2="effect1_dropShadow_1_41" result="shape"/>
</filter>
<linearGradient id="paint0_linear_1_41" x1="10" y1="10" x2="10" y2="40" gradientUnits="userSpaceOnUse">
<stop stop-color="#A864C7"/>
<stop offset="1" stop-color="#C261D4"/>
</linearGradient>
</defs>
</svg>
