<svg width="50" height="50" viewBox="0 0 50 50" fill="none" xmlns="http://www.w3.org/2000/svg">
<g filter="url(#filter0_d_1_8)">
<rect x="10" y="10" width="30" height="30" rx="15" fill="url(#paint0_linear_1_8)"/>
</g>
<path fill-rule="evenodd" clip-rule="evenodd" d="M17.5511 25.1919C17.483 25.0756 17.483 24.9317 17.551 24.8154L21.1395 18.6843C21.2063 18.5702 21.3287 18.5 21.461 18.5H28.5772C28.7101 18.5 28.833 18.5708 28.8996 18.6859L32.4487 24.8169C32.5155 24.9324 32.5155 25.0749 32.4486 25.1903L28.8996 31.3143C28.833 31.4292 28.7102 31.5 28.5773 31.5H21.4608C21.3286 31.5 21.2063 31.4299 21.1394 31.3158L17.5511 25.1919ZM25 28.5C26.933 28.5 28.5 26.933 28.5 25C28.5 23.067 26.933 21.5 25 21.5C23.067 21.5 21.5 23.067 21.5 25C21.5 26.933 23.067 28.5 25 28.5Z" fill="white"/>
<defs>
<filter id="filter0_d_1_8" x="0" y="0" width="50" height="50" filterUnits="userSpaceOnUse" color-interpolation-filters="sRGB">
<feFlood flood-opacity="0" result="BackgroundImageFix"/>
<feColorMatrix in="SourceAlpha" type="matrix" values="0 0 0 0 0 0 0 0 0 0 0 0 0 0 0 0 0 0 127 0" result="hardAlpha"/>
<feOffset/>
<feGaussianBlur stdDeviation="5"/>
<feColorMatrix type="matrix" values="0 0 0 0 0.313726 0 0 0 0 0.580392 0 0 0 0 0.631373 0 0 0 0.7 0"/>
<feBlend mode="normal" in2="BackgroundImageFix" result="effect1_dropShadow_1_8"/>
<feBlend mode="normal" in="SourceGraphic" in2="effect1_dropShadow_1_8" result="shape"/>
</filter>
<linearGradient id="paint0_linear_1_8" x1="10" y1="10" x2="10" y2="40" gradientUnits="userSpaceOnUse">
<stop stop-color="#52869D"/>
<stop offset="1" stop-color="#58A6AA"/>
</linearGradient>
</defs>
</svg>
