<svg width="50" height="50" viewBox="0 0 50 50" fill="none" xmlns="http://www.w3.org/2000/svg">
<g filter="url(#filter0_d_1_4)">
<rect x="10" y="10" width="30" height="30" rx="15" fill="url(#paint0_linear_1_4)"/>
</g>
<path fill-rule="evenodd" clip-rule="evenodd" d="M25 33C28.0376 33 30.5 30.4629 30.5 27.3333C30.5 24.2037 25 16 25 16C25 16 19.5 24.2037 19.5 27.3333C19.5 30.4629 21.9624 33 25 33ZM21.629 28.0889C21.629 28.0889 22.6935 29.6708 23.9355 30.1667C25.1775 30.6625 27.4839 29.9778 27.4839 29.9778C27.4839 29.9778 26.4194 31.6778 24.1129 31.3C21.8065 30.9222 21.629 28.0889 21.629 28.0889Z" fill="white"/>
<defs>
<filter id="filter0_d_1_4" x="0" y="0" width="50" height="50" filterUnits="userSpaceOnUse" color-interpolation-filters="sRGB">
<feFlood flood-opacity="0" result="BackgroundImageFix"/>
<feColorMatrix in="SourceAlpha" type="matrix" values="0 0 0 0 0 0 0 0 0 0 0 0 0 0 0 0 0 0 127 0" result="hardAlpha"/>
<feOffset/>
<feGaussianBlur stdDeviation="5"/>
<feColorMatrix type="matrix" values="0 0 0 0 0.333333 0 0 0 0 0.619608 0 0 0 0 0.87451 0 0 0 0.7 0"/>
<feBlend mode="normal" in2="BackgroundImageFix" result="effect1_dropShadow_1_4"/>
<feBlend mode="normal" in="SourceGraphic" in2="effect1_dropShadow_1_4" result="shape"/>
</filter>
<linearGradient id="paint0_linear_1_4" x1="10" y1="10" x2="10" y2="40" gradientUnits="userSpaceOnUse">
<stop stop-color="#4A90DD"/>
<stop offset="1" stop-color="#6CBDE4"/>
</linearGradient>
</defs>
</svg>
